<?xml version="1.0" encoding="utf-8"?>
<!-- Generator: Adobe Illustrator 25.2.0, SVG Export Plug-In . SVG Version: 6.00 Build 0)  -->
<svg version="1.1" id="svg" xmlns="http://www.w3.org/2000/svg" xmlns:xlink="http://www.w3.org/1999/xlink" x="0px" y="0px"
	 viewBox="0 0 400 400" style="enable-background:new 0 0 400 400;" xml:space="preserve">
<style type="text/css">
	.st0{fill-rule:evenodd;clip-rule:evenodd;}
	.st1{fill-rule:evenodd;clip-rule:evenodd;fill:transparent;}
</style>
<g id="svgg" fill='#3772ff'>
	<path id="path0" class="st0" d="M233.3,35.4c-13.5,5-25.8,21.7-34.4,46.6c-2.2,6.3-6.9,17.5-9.1,21.4c-0.7,1.3-2.6,4.7-4.2,7.4
		c-1.6,2.8-3.8,6.8-4.9,9.1c-2.3,4.6-2.6,4.9-2.4,2.4c0.1-1.2,0.8-2.8,2.4-5.5c6.2-10.4,14.2-28.6,14.2-32.2
		c0-2.7-37.9,38.8-45.7,50c-1.4,2-13.4,16.9-26.9,33.2c-27.9,34-28.8,35.2-33.9,48.2c-8.7,22-7.7,39.7,3.3,64.7
		c14.5,32.7,38.1,52.1,67.1,55c5.6,0.6,5.8,0.5,10-2.6c5.1-3.8,9.9-11.5,11.7-18.4c0.9-3.4,1.3-7.1,2-16c1-13.1,4.2-21.8,10.5-27.9
		l2-2l-2.7-2.9c-25.3-27.2-36.2-66.6-28.8-103.1c1.4-6.7,9.8-31,10.9-31.4c0.9-0.3,0.9-0.2-0.8,3.8c-13.6,32.5-14.6,63.3-2.9,88.4
		c1.4,3,3.6,7.8,5,10.8c8.7,19.2,19.3,32.4,30.7,38.4c4.2,2.2,4.7,1.9,14.1-6.6c17.4-15.7,30.2-34.4,34.3-49.8
		c3.8-14.5-0.9-34.9-12.9-56.2c-0.2-0.4-1.1-2.1-1.9-3.8c-0.8-1.6-1.9-3.5-2.4-4.1c-1-1.2-4.7-9.8-7.5-17.4
		c-6.1-16.5-9.2-29.5-9-38.5c0-2.1-0.1-6.6-0.2-10c-1-20.9,4.4-38.8,14.7-48.9l3.2-3.1l-1.3,0C236.4,34.4,234.7,34.9,233.3,35.4
		 M229.6,102.5c0,12.2,6.3,38.2,11.2,46.7c0.8,1.4,1.8,3.4,2.2,4.4c0.4,1,1.2,2.6,1.8,3.5c0.6,0.9,1.1,1.8,1.1,2
		c0,0.2,0.4,1.1,0.9,2.1c0.5,1,1.1,2.2,1.2,2.8c0.2,0.6,0.8,2.1,1.4,3.4c7.4,16.2,11.2,36.1,9,47.2c-2.6,12.9-4.7,17.2-15.7,31.8
		c-14.6,19.5-23.2,31.8-25.6,36.4l-1,1.9l0.1,25.7l0.1,25.7l3.6,0.5c20.9,2.7,43.9-3.5,61.5-16.6c38.1-28.3,54.4-87.7,33.8-122.9
		c-2-3.5-2.6-4.1-20.8-23.4c-35.3-37.5-59.8-64.5-63.8-70.6l-1.4-2.1V102.5 M76,278.4c-0.1,4.2,2.8,17.4,5.4,24.8
		c10.9,31.3,37.5,54,71,60.8c17.4,3.5,24,0.4,27.6-13c0.5-1.8,1.1-3.8,1.5-4.5c0.6-1.4,0.5-3.8-0.2-4.5c-0.2-0.2-3.2,0.5-6.7,1.5
		c-12.6,3.6-21.5,2.7-34.5-3.7c-18.8-9.2-44.9-34.7-63.4-61.8l-0.7-1L76,278.4 M195.6,278.3c-11,7-14.3,58.9-4.7,74.4
		c0.5,0.7,1.3,2.2,1.8,3.3c1.5,3.1,5,4.6,11.8,5c3.3,0.2,3.5,0.2,4.1-0.7c2.7-4.1,3.9-20.2,3.9-53.5v-21.5l-1.1-1.8
		C207.7,277.9,200.2,275.4,195.6,278.3 M316.8,291.3c-29.4,35.9-62.1,54.3-94.7,53.2c-3.9-0.1-5.4,0.4-5.9,1.9
		c-0.1,0.4-0.5,1.2-0.8,1.9c-1.6,3.6-0.5,10.6,2,12.3c3,2.1,28.3-1,42.3-5.3c31.4-9.6,54.8-34.4,61.6-65.1
		C322.5,284.2,322.6,284.2,316.8,291.3"/>
</g>
<path class="st1" d="M172.2,138.5l21.9-44.4l-2.1-0.8c0,0-19.3,35.5-22.8,50.7L172.2,138.5z"/>
<path class="st1" d="M161.3,191.8c0,0-4.6-35.5,13-62C174.2,129.8,158,169.7,161.3,191.8z"/>
<polygon class="st1" points="170.6,136.1 184.6,107.7 177.6,125.6 "/>
</svg>
